<?xml version="1.0" standalone="no"?>
<!DOCTYPE svg PUBLIC "-//W3C//DTD SVG 20010904//EN"
 "http://www.w3.org/TR/2001/REC-SVG-20010904/DTD/svg10.dtd">
<svg version="1.0" xmlns="http://www.w3.org/2000/svg"
 width="75.000000pt" height="42.000000pt" viewBox="0 0 75.000000 42.000000"
 preserveAspectRatio="xMidYMid meet">

<g transform="translate(0.000000,42.000000) scale(0.100000,-0.100000)"
fill="#000000" stroke="none">
<path d="M427 414 c-5 -5 -27 -9 -79 -13 -5 -1 -8 -6 -8 -12 0 -6 -25 -35 -55
-65 -109 -104 -146 -245 -80 -301 57 -50 173 -15 269 82 70 70 101 134 101
208 0 52 -3 62 -28 83 -20 17 -40 24 -71 24 -23 0 -45 -3 -49 -6z m96 -15 c83
-38 47 -192 -68 -297 -184 -168 -349 -85 -238 120 32 58 114 138 142 138 11 0
24 6 28 14 18 32 92 45 136 25z"/>
<path d="M381 349 c-67 -27 -137 -109 -159 -189 -5 -19 -13 -42 -16 -51 -9
-20 60 -59 102 -59 131 1 278 214 199 288 -25 24 -82 29 -126 11z m123 -21
c50 -71 -31 -208 -147 -253 -52 -19 -95 -14 -103 13 -3 9 -10 27 -16 38 -22
47 51 162 131 204 51 27 115 26 135 -2z"/>
<path d="M355 302 c-39 -24 -55 -44 -70 -89 -17 -49 -3 -91 33 -100 63 -17
119 16 158 92 l27 55 -28 30 c-34 35 -75 39 -120 12z m94 -1 c9 -6 16 -29 18
-57 2 -44 -1 -51 -38 -86 -36 -34 -46 -39 -82 -36 -32 2 -44 8 -53 27 -37 73
88 195 155 152z"/>
<path d="M370 233 c0 -7 -6 -10 -13 -7 -15 6 -17 -29 -2 -42 27 -24 64 2 46
34 -6 9 -11 13 -11 7 0 -5 -5 -3 -10 5 -6 9 -10 11 -10 3z"/>
</g>
</svg>
