<?xml version="1.0" standalone="no"?>
<!DOCTYPE svg PUBLIC "-//W3C//DTD SVG 20010904//EN"
 "http://www.w3.org/TR/2001/REC-SVG-20010904/DTD/svg10.dtd">
<svg version="1.0" xmlns="http://www.w3.org/2000/svg"
 width="75.000000pt" height="75.000000pt" viewBox="0 0 75.000000 75.000000"
 preserveAspectRatio="xMidYMid meet">

<g transform="translate(0.000000,75.000000) scale(0.100000,-0.100000)"
fill="#000000" stroke="none">
<path d="M282 739 c-19 -5 -32 -15 -29 -22 3 -8 30 -11 93 -9 121 5 187 -19
265 -97 135 -135 135 -337 0 -472 -135 -135 -337 -135 -472 0 -96 96 -125 230
-78 355 19 52 19 76 0 76 -5 0 -19 -24 -32 -52 -19 -43 -24 -70 -24 -143 0
-78 4 -98 28 -151 36 -77 113 -154 192 -191 52 -24 72 -28 150 -28 78 0 98 4
151 28 77 36 154 113 191 192 24 52 28 72 28 150 0 78 -4 98 -28 151 -36 78
-114 155 -192 190 -66 31 -183 42 -243 23z"/>
<path d="M101 684 c-28 -35 -26 -69 4 -99 30 -30 64 -32 99 -4 33 26 36 79 6
109 -30 30 -83 27 -109 -6z"/>
<path d="M310 543 c-66 -27 -110 -95 -110 -168 0 -153 183 -232 293 -127 41
39 57 74 57 127 0 101 -64 168 -165 172 -33 1 -67 0 -75 -4z"/>
</g>
</svg>
