<?xml version="1.0" standalone="no"?>
<!DOCTYPE svg PUBLIC "-//W3C//DTD SVG 20010904//EN"
 "http://www.w3.org/TR/2001/REC-SVG-20010904/DTD/svg10.dtd">
<svg version="1.0" xmlns="http://www.w3.org/2000/svg"
 width="75.000000pt" height="75.000000pt" viewBox="0 0 75.000000 75.000000"
 preserveAspectRatio="xMidYMid meet">

<g transform="translate(0.000000,75.000000) scale(0.100000,-0.100000)"
fill="#000000" stroke="none">
<path d="M275 736 c-61 -19 -125 -55 -99 -56 11 0 24 3 28 7 11 11 88 33 97
27 5 -3 17 4 29 16 18 18 18 20 3 19 -10 0 -36 -6 -58 -13z"/>
<path d="M390 738 c0 -14 7 -17 80 -22 25 -2 54 -6 65 -10 11 -3 2 3 -21 13
-56 28 -124 38 -124 19z"/>
<path d="M524 653 c1 -12 -12 -19 -47 -27 -58 -13 -62 -31 -6 -31 31 0 44 -6
60 -25 15 -20 18 -21 12 -5 -6 20 -6 20 15 2 11 -11 25 -16 30 -13 13 8 42 -3
42 -15 0 -5 -13 -6 -30 -2 -37 7 -41 -13 -5 -27 14 -5 25 -17 25 -26 0 -16 -2
-16 -17 -2 -10 9 -35 23 -55 31 -26 11 -36 21 -32 30 3 10 -5 18 -27 26 -44
15 -67 14 -114 -8 -85 -38 -82 -116 4 -154 52 -23 64 -36 49 -54 -5 -7 -8 -23
-4 -36 3 -14 -1 -33 -11 -46 -9 -13 -17 -40 -18 -60 -2 -20 -6 -43 -9 -52 -6
-13 0 -18 26 -21 31 -5 67 10 93 38 6 6 22 18 37 27 15 10 30 28 34 41 3 13
20 30 40 39 31 15 48 47 24 47 -5 0 -10 4 -10 10 0 5 7 7 15 3 17 -6 55 23 55
41 0 7 -9 19 -20 29 -21 18 -26 37 -10 37 6 0 10 -7 10 -15 0 -9 6 -18 14 -21
18 -7 36 -56 36 -98 1 -27 2 -29 12 -12 6 12 9 47 5 92 -9 116 -63 216 -137
254 -49 25 -88 26 -86 3z m105 -273 c1 -20 -1 -22 -9 -10 -5 8 -9 31 -9 50 1
32 2 33 9 10 4 -14 8 -36 9 -50z"/>
<path d="M480 650 c0 -5 5 -10 11 -10 5 0 7 5 4 10 -3 6 -8 10 -11 10 -2 0 -4
-4 -4 -10z"/>
<path d="M33 524 c-24 -53 -25 -59 -14 -130 6 -41 11 -90 11 -109 0 -44 11
-45 29 -2 8 17 26 44 40 59 69 73 72 79 41 118 -11 14 -20 35 -20 47 0 12 -4
25 -10 28 -5 3 -10 15 -10 26 0 13 -7 19 -21 19 -15 0 -27 -14 -46 -56z"/>
<path d="M41 224 c0 -11 3 -14 6 -6 3 7 2 16 -1 19 -3 4 -6 -2 -5 -13z"/>
<path d="M565 180 c-26 -10 -50 -38 -41 -47 4 -4 21 7 39 25 34 34 34 35 2 22z"/>
<path d="M238 29 c24 -11 46 -18 49 -15 6 6 -24 19 -67 30 -14 3 -5 -4 18 -15z"/>
</g>
</svg>
